# xmcd CD database file
#
# Track frame offsets:
#	150
#	16879
#	27292
#	37593
#	47997
#	58490
#	72248
#	81626
#	95477
#	105512
#	114621
#	133726
#
# Disc length: 1919 seconds
#
# Revision: 0
# Processed by: cddbd v1.5.2PL0 Copyright (c) Steve Scherf et al.
# Submitted via: CDex 1.51
#
DISCID=a4077d0c
DTITLE=Billy Preston - Drown in my own tears
DYEAR=2006
DGENRE=Blues
TTITLE0=Drown in my own tears
TTITLE1=Goldfinger
TTITLE2=You've lost that loving feelin'
TTITLE3=The birds and the bees
TTITLE4=Stop ! in the name of love
TTITLE5=Don't let the sun catch you crying
TTITLE6=Let me know
TTITLE7=Slippin' and slidin'
TTITLE8=Low down
TTITLE9=I'm coming through
TTITLE10=The masquerade is over
TTITLE11=King of the road
EXTD=YEAR: 2006
EXTT0=
EXTT1=
EXTT2=
EXTT3=
EXTT4=
EXTT5=
EXTT6=
EXTT7=
EXTT8=
EXTT9=
EXTT10=
EXTT11=
PLAYORDER=
